# xmcd
#
# Track frame offsets: 
#        182
#        76122
#        129690
#
# Disc length: 2040 seconds
#
# Revision: 1
# Processed by: cddbd v1.5.2PL0 Copyright (c) Steve Scherf et al.
# Submitted via: ExactAudioCopy v0.99pb5
#
DISCID=1b07f603
DTITLE=Pink Floyd - Tonite Lets All Make Love In London (Promo CD)
DYEAR=1990
DGENRE=Psychedelic Rock
TTITLE0=Interstellar Overdrive [Full Length Version]
TTITLE1=Nick's Boogie
TTITLE2=Interviews With David Hockney and Lee Marvin [1968]
EXTD=
EXTT0=
EXTT1=
EXTT2=
PLAYORDER=
